<svg width="220" height="40" viewBox="0 0 220 40" fill="none" xmlns="http://www.w3.org/2000/svg">
<path d="M0.5 10C0.5 4.75329 4.7533 0.5 10 0.5H210C215.247 0.5 219.5 4.75329 219.5 10V30C219.5 35.2467 215.247 39.5 210 39.5H10C4.7533 39.5 0.5 35.2467 0.5 30V10Z" stroke="#303030"/>
<path d="M25.4314 24.56H28.2754C28.4674 24.56 28.7074 24.548 28.9954 24.524C29.2834 24.488 29.5894 24.416 29.9134 24.308C30.2374 24.188 30.5554 24.02 30.8674 23.804C31.1914 23.588 31.4794 23.294 31.7314 22.922C31.9834 22.55 32.1874 22.088 32.3434 21.536C32.5114 20.972 32.5954 20.294 32.5954 19.502C32.5954 18.734 32.5174 18.05 32.3614 17.45C32.2174 16.838 31.9714 16.322 31.6234 15.902C31.2874 15.47 30.8494 15.146 30.3094 14.93C29.7694 14.702 29.1034 14.588 28.3114 14.588H25.4314V24.56ZM23.7214 13.148H28.1314C30.1114 13.148 31.6354 13.652 32.7034 14.66C33.7714 15.668 34.3054 17.204 34.3054 19.268C34.3054 20.348 34.1854 21.308 33.9454 22.148C33.7054 22.976 33.3334 23.678 32.8294 24.254C32.3254 24.818 31.6834 25.25 30.9034 25.55C30.1234 25.85 29.1994 26 28.1314 26H23.7214V13.148ZM37.2592 21.356C37.2592 21.92 37.3312 22.424 37.4752 22.868C37.6312 23.3 37.8412 23.666 38.1052 23.966C38.3692 24.254 38.6752 24.476 39.0232 24.632C39.3832 24.788 39.7612 24.866 40.1572 24.866C40.5532 24.866 40.9252 24.788 41.2732 24.632C41.6332 24.476 41.9452 24.254 42.2092 23.966C42.4732 23.666 42.6772 23.3 42.8212 22.868C42.9772 22.424 43.0552 21.92 43.0552 21.356C43.0552 20.792 42.9772 20.294 42.8212 19.862C42.6772 19.418 42.4732 19.046 42.2092 18.746C41.9452 18.446 41.6332 18.218 41.2732 18.062C40.9252 17.906 40.5532 17.828 40.1572 17.828C39.7612 17.828 39.3832 17.906 39.0232 18.062C38.6752 18.218 38.3692 18.446 38.1052 18.746C37.8412 19.046 37.6312 19.418 37.4752 19.862C37.3312 20.294 37.2592 20.792 37.2592 21.356ZM35.6392 21.356C35.6392 20.672 35.7352 20.036 35.9272 19.448C36.1192 18.848 36.4072 18.332 36.7912 17.9C37.1752 17.456 37.6492 17.108 38.2132 16.856C38.7772 16.604 39.4252 16.478 40.1572 16.478C40.9012 16.478 41.5492 16.604 42.1012 16.856C42.6652 17.108 43.1392 17.456 43.5232 17.9C43.9072 18.332 44.1952 18.848 44.3872 19.448C44.5792 20.036 44.6752 20.672 44.6752 21.356C44.6752 22.04 44.5792 22.676 44.3872 23.264C44.1952 23.852 43.9072 24.368 43.5232 24.812C43.1392 25.244 42.6652 25.586 42.1012 25.838C41.5492 26.078 40.9012 26.198 40.1572 26.198C39.4252 26.198 38.7772 26.078 38.2132 25.838C37.6492 25.586 37.1752 25.244 36.7912 24.812C36.4072 24.368 36.1192 23.852 35.9272 23.264C35.7352 22.676 35.6392 22.04 35.6392 21.356ZM55.6951 26H54.0751L52.1851 18.602H52.1491L50.2771 26H48.6211L45.6331 16.694H47.3251L49.4311 24.308H49.4671L51.3391 16.694H53.0131L54.9571 24.308H54.9931L57.0811 16.694H58.6651L55.6951 26ZM60.1198 16.694H61.5598V18.17H61.5958C62.2318 17.042 63.2398 16.478 64.6198 16.478C65.2318 16.478 65.7418 16.562 66.1498 16.73C66.5578 16.898 66.8878 17.132 67.1398 17.432C67.3918 17.732 67.5658 18.092 67.6618 18.512C67.7698 18.92 67.8238 19.376 67.8238 19.88V26H66.2938V19.7C66.2938 19.124 66.1258 18.668 65.7898 18.332C65.4538 17.996 64.9918 17.828 64.4038 17.828C63.9358 17.828 63.5278 17.9 63.1798 18.044C62.8438 18.188 62.5618 18.392 62.3338 18.656C62.1058 18.92 61.9318 19.232 61.8118 19.592C61.7038 19.94 61.6498 20.324 61.6498 20.744V26H60.1198V16.694ZM70.2117 13.148H71.7417V26H70.2117V13.148ZM75.228 21.356C75.228 21.92 75.3 22.424 75.444 22.868C75.6 23.3 75.81 23.666 76.074 23.966C76.338 24.254 76.644 24.476 76.992 24.632C77.352 24.788 77.73 24.866 78.126 24.866C78.522 24.866 78.894 24.788 79.242 24.632C79.602 24.476 79.914 24.254 80.178 23.966C80.442 23.666 80.646 23.3 80.79 22.868C80.946 22.424 81.024 21.92 81.024 21.356C81.024 20.792 80.946 20.294 80.79 19.862C80.646 19.418 80.442 19.046 80.178 18.746C79.914 18.446 79.602 18.218 79.242 18.062C78.894 17.906 78.522 17.828 78.126 17.828C77.73 17.828 77.352 17.906 76.992 18.062C76.644 18.218 76.338 18.446 76.074 18.746C75.81 19.046 75.6 19.418 75.444 19.862C75.3 20.294 75.228 20.792 75.228 21.356ZM73.608 21.356C73.608 20.672 73.704 20.036 73.896 19.448C74.088 18.848 74.376 18.332 74.76 17.9C75.144 17.456 75.618 17.108 76.182 16.856C76.746 16.604 77.394 16.478 78.126 16.478C78.87 16.478 79.518 16.604 80.07 16.856C80.634 17.108 81.108 17.456 81.492 17.9C81.876 18.332 82.164 18.848 82.356 19.448C82.548 20.036 82.644 20.672 82.644 21.356C82.644 22.04 82.548 22.676 82.356 23.264C82.164 23.852 81.876 24.368 81.492 24.812C81.108 25.244 80.634 25.586 80.07 25.838C79.518 26.078 78.87 26.198 78.126 26.198C77.394 26.198 76.746 26.078 76.182 25.838C75.618 25.586 75.144 25.244 74.76 24.812C74.376 24.368 74.088 23.852 73.896 23.264C73.704 22.676 73.608 22.04 73.608 21.356ZM92.6919 25.964C92.4279 26.12 92.0619 26.198 91.5939 26.198C91.1979 26.198 90.8799 26.09 90.6399 25.874C90.4119 25.646 90.2979 25.28 90.2979 24.776C89.8779 25.28 89.3859 25.646 88.8219 25.874C88.2699 26.09 87.6699 26.198 87.0219 26.198C86.6019 26.198 86.1999 26.15 85.8159 26.054C85.4439 25.958 85.1199 25.808 84.8439 25.604C84.5679 25.4 84.3459 25.136 84.1779 24.812C84.0219 24.476 83.9439 24.074 83.9439 23.606C83.9439 23.078 84.0339 22.646 84.2139 22.31C84.3939 21.974 84.6279 21.704 84.9159 21.5C85.2159 21.284 85.5519 21.122 85.9239 21.014C86.3079 20.906 86.6979 20.816 87.0939 20.744C87.5139 20.66 87.9099 20.6 88.2819 20.564C88.6659 20.516 89.0019 20.456 89.2899 20.384C89.5779 20.3 89.8059 20.186 89.9739 20.042C90.1419 19.886 90.2259 19.664 90.2259 19.376C90.2259 19.04 90.1599 18.77 90.0279 18.566C89.9079 18.362 89.7459 18.206 89.5419 18.098C89.3499 17.99 89.1279 17.918 88.8759 17.882C88.6359 17.846 88.3959 17.828 88.1559 17.828C87.5079 17.828 86.9679 17.954 86.5359 18.206C86.1039 18.446 85.8699 18.908 85.8339 19.592H84.3039C84.3279 19.016 84.4479 18.53 84.6639 18.134C84.8799 17.738 85.1679 17.42 85.5279 17.18C85.8879 16.928 86.2959 16.748 86.7519 16.64C87.2199 16.532 87.7179 16.478 88.2459 16.478C88.6659 16.478 89.0799 16.508 89.4879 16.568C89.9079 16.628 90.2859 16.754 90.6219 16.946C90.9579 17.126 91.2279 17.384 91.4319 17.72C91.6359 18.056 91.7379 18.494 91.7379 19.034V23.822C91.7379 24.182 91.7559 24.446 91.7919 24.614C91.8399 24.782 91.9839 24.866 92.2239 24.866C92.3559 24.866 92.5119 24.836 92.6919 24.776V25.964ZM90.2079 21.194C90.0159 21.338 89.7639 21.446 89.4519 21.518C89.1399 21.578 88.8099 21.632 88.4619 21.68C88.1259 21.716 87.7839 21.764 87.4359 21.824C87.0879 21.872 86.7759 21.956 86.4999 22.076C86.2239 22.196 85.9959 22.37 85.8159 22.598C85.6479 22.814 85.5639 23.114 85.5639 23.498C85.5639 23.75 85.6119 23.966 85.7079 24.146C85.8159 24.314 85.9479 24.452 86.1039 24.56C86.2719 24.668 86.4639 24.746 86.6799 24.794C86.8959 24.842 87.1239 24.866 87.3639 24.866C87.8679 24.866 88.2999 24.8 88.6599 24.668C89.0199 24.524 89.3139 24.35 89.5419 24.146C89.7699 23.93 89.9379 23.702 90.0459 23.462C90.1539 23.21 90.2079 22.976 90.2079 22.76V21.194ZM95.2319 21.428C95.2319 21.86 95.2859 22.286 95.3939 22.706C95.5139 23.114 95.6879 23.48 95.9159 23.804C96.1559 24.128 96.4559 24.386 96.8159 24.578C97.1879 24.77 97.6199 24.866 98.1119 24.866C98.6279 24.866 99.0659 24.764 99.4259 24.56C99.7859 24.356 100.08 24.092 100.308 23.768C100.536 23.432 100.698 23.054 100.794 22.634C100.902 22.214 100.956 21.788 100.956 21.356C100.956 20.9 100.902 20.462 100.794 20.042C100.686 19.61 100.512 19.232 100.272 18.908C100.044 18.584 99.7439 18.326 99.3719 18.134C98.9999 17.93 98.5499 17.828 98.0219 17.828C97.5059 17.828 97.0679 17.93 96.7079 18.134C96.3479 18.338 96.0599 18.608 95.8439 18.944C95.6279 19.28 95.4719 19.664 95.3759 20.096C95.2799 20.528 95.2319 20.972 95.2319 21.428ZM102.432 26H100.902V24.74H100.866C100.614 25.256 100.218 25.628 99.6779 25.856C99.1379 26.084 98.5439 26.198 97.8959 26.198C97.1759 26.198 96.5459 26.066 96.0059 25.802C95.4779 25.538 95.0339 25.184 94.6739 24.74C94.3259 24.296 94.0619 23.78 93.8819 23.192C93.7019 22.604 93.6119 21.98 93.6119 21.32C93.6119 20.66 93.6959 20.036 93.8639 19.448C94.0439 18.86 94.3079 18.35 94.6559 17.918C95.0159 17.474 95.4599 17.126 95.9879 16.874C96.5279 16.61 97.1519 16.478 97.8599 16.478C98.0999 16.478 98.3579 16.502 98.6339 16.55C98.9099 16.598 99.1859 16.682 99.4619 16.802C99.7379 16.91 99.9959 17.06 100.236 17.252C100.488 17.432 100.698 17.66 100.866 17.936H100.902V13.148H102.432V26ZM111.92 16.694H113.774V18.044H111.92V23.822C111.92 24.002 111.932 24.146 111.956 24.254C111.992 24.362 112.052 24.446 112.136 24.506C112.22 24.566 112.334 24.608 112.478 24.632C112.634 24.644 112.832 24.65 113.072 24.65H113.774V26H112.604C112.208 26 111.866 25.976 111.578 25.928C111.302 25.868 111.074 25.766 110.894 25.622C110.726 25.478 110.6 25.274 110.516 25.01C110.432 24.746 110.39 24.398 110.39 23.966V18.044H108.806V16.694H110.39V13.904H111.92V16.694ZM115.473 13.148H117.003V18.062H117.039C117.159 17.774 117.327 17.534 117.543 17.342C117.759 17.138 117.999 16.976 118.263 16.856C118.539 16.724 118.821 16.628 119.109 16.568C119.409 16.508 119.697 16.478 119.973 16.478C120.585 16.478 121.095 16.562 121.503 16.73C121.911 16.898 122.241 17.132 122.493 17.432C122.745 17.732 122.919 18.092 123.015 18.512C123.123 18.92 123.177 19.376 123.177 19.88V26H121.647V19.7C121.647 19.124 121.479 18.668 121.143 18.332C120.807 17.996 120.345 17.828 119.757 17.828C119.289 17.828 118.881 17.9 118.533 18.044C118.197 18.188 117.915 18.392 117.687 18.656C117.459 18.92 117.285 19.232 117.165 19.592C117.057 19.94 117.003 20.324 117.003 20.744V26H115.473V13.148ZM131.937 20.456C131.913 20.096 131.829 19.754 131.685 19.43C131.553 19.106 131.367 18.83 131.127 18.602C130.899 18.362 130.623 18.176 130.299 18.044C129.987 17.9 129.639 17.828 129.255 17.828C128.859 17.828 128.499 17.9 128.175 18.044C127.863 18.176 127.593 18.362 127.365 18.602C127.137 18.842 126.957 19.124 126.825 19.448C126.693 19.76 126.615 20.096 126.591 20.456H131.937ZM133.413 23.048C133.209 24.092 132.759 24.878 132.063 25.406C131.367 25.934 130.491 26.198 129.435 26.198C128.691 26.198 128.043 26.078 127.491 25.838C126.951 25.598 126.495 25.262 126.123 24.83C125.751 24.398 125.469 23.882 125.277 23.282C125.097 22.682 124.995 22.028 124.971 21.32C124.971 20.612 125.079 19.964 125.295 19.376C125.511 18.788 125.811 18.278 126.195 17.846C126.591 17.414 127.053 17.078 127.581 16.838C128.121 16.598 128.709 16.478 129.345 16.478C130.173 16.478 130.857 16.652 131.397 17C131.949 17.336 132.387 17.768 132.711 18.296C133.047 18.824 133.275 19.4 133.395 20.024C133.527 20.648 133.581 21.242 133.557 21.806H126.591C126.579 22.214 126.627 22.604 126.735 22.976C126.843 23.336 127.017 23.66 127.257 23.948C127.497 24.224 127.803 24.446 128.175 24.614C128.547 24.782 128.985 24.866 129.489 24.866C130.137 24.866 130.665 24.716 131.073 24.416C131.493 24.116 131.769 23.66 131.901 23.048H133.413ZM142.115 19.304H145.463C146.435 19.316 147.143 19.118 147.587 18.71C148.043 18.302 148.271 17.714 148.271 16.946C148.271 16.178 148.043 15.596 147.587 15.2C147.143 14.792 146.435 14.588 145.463 14.588H142.115V19.304ZM140.405 13.148H146.039C147.335 13.148 148.313 13.484 148.973 14.156C149.645 14.816 149.981 15.746 149.981 16.946C149.981 18.146 149.645 19.082 148.973 19.754C148.313 20.426 147.335 20.756 146.039 20.744H142.115V26H140.405V13.148ZM153.787 24.56H156.631C156.823 24.56 157.063 24.548 157.351 24.524C157.639 24.488 157.945 24.416 158.269 24.308C158.593 24.188 158.911 24.02 159.223 23.804C159.547 23.588 159.835 23.294 160.087 22.922C160.339 22.55 160.543 22.088 160.699 21.536C160.867 20.972 160.951 20.294 160.951 19.502C160.951 18.734 160.873 18.05 160.717 17.45C160.573 16.838 160.327 16.322 159.979 15.902C159.643 15.47 159.205 15.146 158.665 14.93C158.125 14.702 157.459 14.588 156.667 14.588H153.787V24.56ZM152.077 13.148H156.487C158.467 13.148 159.991 13.652 161.059 14.66C162.127 15.668 162.661 17.204 162.661 19.268C162.661 20.348 162.541 21.308 162.301 22.148C162.061 22.976 161.689 23.678 161.185 24.254C160.681 24.818 160.039 25.25 159.259 25.55C158.479 25.85 157.555 26 156.487 26H152.077V13.148ZM164.751 13.148H173.193V14.588H166.461V18.674H172.365V20.114H166.461V26H164.751V13.148Z" fill="#303030"/>
<path d="M191 13V27" stroke="#303030" stroke-linecap="round" stroke-linejoin="round"/>
<path d="M198 20L191 27L184 20" stroke="#303030" stroke-linecap="round" stroke-linejoin="round"/>
</svg>
