<svg width="90" height="40" viewBox="0 0 90 40" fill="none" xmlns="http://www.w3.org/2000/svg">
<path d="M0.5 10C0.5 4.75329 4.7533 0.5 10 0.5H80C85.2467 0.5 89.5 4.75329 89.5 10V30C89.5 35.2467 85.2467 39.5 80 39.5H10C4.75329 39.5 0.5 35.2467 0.5 30V10Z" stroke="#303030"/>
<path d="M23.7642 13.148H26.1042L30.1542 23.948L34.2222 13.148H36.5622V26H34.9422V15.308H34.9062L30.8922 26H29.4342L25.4202 15.308H25.3842V26H23.7642V13.148ZM45.6179 20.456C45.5939 20.096 45.5099 19.754 45.3659 19.43C45.2339 19.106 45.0479 18.83 44.8079 18.602C44.5799 18.362 44.3039 18.176 43.9799 18.044C43.6679 17.9 43.3199 17.828 42.9359 17.828C42.5399 17.828 42.1799 17.9 41.8559 18.044C41.5439 18.176 41.2739 18.362 41.0459 18.602C40.8179 18.842 40.6379 19.124 40.5059 19.448C40.3739 19.76 40.2959 20.096 40.2719 20.456H45.6179ZM47.0939 23.048C46.8899 24.092 46.4399 24.878 45.7439 25.406C45.0479 25.934 44.1719 26.198 43.1159 26.198C42.3719 26.198 41.7239 26.078 41.1719 25.838C40.6319 25.598 40.1759 25.262 39.8039 24.83C39.4319 24.398 39.1499 23.882 38.9579 23.282C38.7779 22.682 38.6759 22.028 38.6519 21.32C38.6519 20.612 38.7599 19.964 38.9759 19.376C39.1919 18.788 39.4919 18.278 39.8759 17.846C40.2719 17.414 40.7339 17.078 41.2619 16.838C41.8019 16.598 42.3899 16.478 43.0259 16.478C43.8539 16.478 44.5379 16.652 45.0779 17C45.6299 17.336 46.0679 17.768 46.3919 18.296C46.7279 18.824 46.9559 19.4 47.0759 20.024C47.2079 20.648 47.2619 21.242 47.2379 21.806H40.2719C40.2599 22.214 40.3079 22.604 40.4159 22.976C40.5239 23.336 40.6979 23.66 40.9379 23.948C41.1779 24.224 41.4839 24.446 41.8559 24.614C42.2279 24.782 42.6659 24.866 43.1699 24.866C43.8179 24.866 44.3459 24.716 44.7539 24.416C45.1739 24.116 45.4499 23.66 45.5819 23.048H47.0939ZM48.8239 16.694H50.2639V18.17H50.2999C50.9359 17.042 51.9439 16.478 53.3239 16.478C53.9359 16.478 54.4459 16.562 54.8539 16.73C55.2619 16.898 55.5919 17.132 55.8439 17.432C56.0959 17.732 56.2699 18.092 56.3659 18.512C56.4739 18.92 56.5279 19.376 56.5279 19.88V26H54.9979V19.7C54.9979 19.124 54.8299 18.668 54.4939 18.332C54.1579 17.996 53.6959 17.828 53.1079 17.828C52.6399 17.828 52.2319 17.9 51.8839 18.044C51.5479 18.188 51.2659 18.392 51.0379 18.656C50.8099 18.92 50.6359 19.232 50.5159 19.592C50.4079 19.94 50.3539 20.324 50.3539 20.744V26H48.8239V16.694ZM66.5298 26H65.0898V24.524H65.0538C64.7298 25.1 64.3158 25.526 63.8118 25.802C63.3078 26.066 62.7138 26.198 62.0298 26.198C61.4178 26.198 60.9078 26.12 60.4998 25.964C60.0918 25.796 59.7618 25.562 59.5098 25.262C59.2578 24.962 59.0778 24.608 58.9698 24.2C58.8738 23.78 58.8258 23.318 58.8258 22.814V16.694H60.3558V22.994C60.3558 23.57 60.5238 24.026 60.8598 24.362C61.1958 24.698 61.6578 24.866 62.2458 24.866C62.7138 24.866 63.1158 24.794 63.4518 24.65C63.7998 24.506 64.0878 24.302 64.3158 24.038C64.5438 23.774 64.7118 23.468 64.8198 23.12C64.9398 22.76 64.9998 22.37 64.9998 21.95V16.694H66.5298V26Z" fill="#303030"/>
</svg>
