<svg width="109" height="40" viewBox="0 0 109 40" fill="none" xmlns="http://www.w3.org/2000/svg">
<path d="M0.5 10C0.5 4.75329 4.7533 0.5 10 0.5H99C104.247 0.5 108.5 4.75329 108.5 10V30C108.5 35.2467 104.247 39.5 99 39.5H10C4.75329 39.5 0.5 35.2467 0.5 30V10Z" stroke="#303030"/>
<path d="M32.9302 17.018C32.7382 16.106 32.3122 15.422 31.6522 14.966C31.0042 14.51 30.2302 14.282 29.3302 14.282C28.5622 14.282 27.9022 14.426 27.3502 14.714C26.8102 15.002 26.3602 15.392 26.0002 15.884C25.6522 16.364 25.3942 16.916 25.2262 17.54C25.0582 18.164 24.9742 18.812 24.9742 19.484C24.9742 20.216 25.0582 20.912 25.2262 21.572C25.3942 22.22 25.6522 22.79 26.0002 23.282C26.3602 23.762 26.8162 24.146 27.3682 24.434C27.9202 24.722 28.5802 24.866 29.3482 24.866C29.9122 24.866 30.4102 24.776 30.8422 24.596C31.2862 24.404 31.6642 24.146 31.9762 23.822C32.3002 23.486 32.5522 23.09 32.7322 22.634C32.9122 22.178 33.0202 21.686 33.0562 21.158H34.7662C34.5982 22.778 34.0402 24.038 33.0922 24.938C32.1442 25.838 30.8482 26.288 29.2042 26.288C28.2082 26.288 27.3382 26.12 26.5942 25.784C25.8502 25.436 25.2322 24.962 24.7402 24.362C24.2482 23.762 23.8762 23.054 23.6242 22.238C23.3842 21.422 23.2642 20.546 23.2642 19.61C23.2642 18.674 23.3962 17.798 23.6602 16.982C23.9242 16.154 24.3082 15.434 24.8122 14.822C25.3282 14.21 25.9642 13.73 26.7202 13.382C27.4882 13.022 28.3642 12.842 29.3482 12.842C30.0202 12.842 30.6562 12.932 31.2562 13.112C31.8562 13.292 32.3902 13.556 32.8582 13.904C33.3262 14.252 33.7162 14.69 34.0282 15.218C34.3402 15.734 34.5442 16.334 34.6402 17.018H32.9302ZM37.7485 21.356C37.7485 21.92 37.8205 22.424 37.9645 22.868C38.1205 23.3 38.3305 23.666 38.5945 23.966C38.8585 24.254 39.1645 24.476 39.5125 24.632C39.8725 24.788 40.2505 24.866 40.6465 24.866C41.0425 24.866 41.4145 24.788 41.7625 24.632C42.1225 24.476 42.4345 24.254 42.6985 23.966C42.9625 23.666 43.1665 23.3 43.3105 22.868C43.4665 22.424 43.5445 21.92 43.5445 21.356C43.5445 20.792 43.4665 20.294 43.3105 19.862C43.1665 19.418 42.9625 19.046 42.6985 18.746C42.4345 18.446 42.1225 18.218 41.7625 18.062C41.4145 17.906 41.0425 17.828 40.6465 17.828C40.2505 17.828 39.8725 17.906 39.5125 18.062C39.1645 18.218 38.8585 18.446 38.5945 18.746C38.3305 19.046 38.1205 19.418 37.9645 19.862C37.8205 20.294 37.7485 20.792 37.7485 21.356ZM36.1285 21.356C36.1285 20.672 36.2245 20.036 36.4165 19.448C36.6085 18.848 36.8965 18.332 37.2805 17.9C37.6645 17.456 38.1385 17.108 38.7025 16.856C39.2665 16.604 39.9145 16.478 40.6465 16.478C41.3905 16.478 42.0385 16.604 42.5905 16.856C43.1545 17.108 43.6285 17.456 44.0125 17.9C44.3965 18.332 44.6845 18.848 44.8765 19.448C45.0685 20.036 45.1645 20.672 45.1645 21.356C45.1645 22.04 45.0685 22.676 44.8765 23.264C44.6845 23.852 44.3965 24.368 44.0125 24.812C43.6285 25.244 43.1545 25.586 42.5905 25.838C42.0385 26.078 41.3905 26.198 40.6465 26.198C39.9145 26.198 39.2665 26.078 38.7025 25.838C38.1385 25.586 37.6645 25.244 37.2805 24.812C36.8965 24.368 36.6085 23.852 36.4165 23.264C36.2245 22.676 36.1285 22.04 36.1285 21.356ZM46.9684 16.694H48.4084V18.17H48.4444C49.0804 17.042 50.0884 16.478 51.4684 16.478C52.0804 16.478 52.5904 16.562 52.9984 16.73C53.4064 16.898 53.7364 17.132 53.9884 17.432C54.2404 17.732 54.4144 18.092 54.5104 18.512C54.6184 18.92 54.6724 19.376 54.6724 19.88V26H53.1424V19.7C53.1424 19.124 52.9744 18.668 52.6384 18.332C52.3024 17.996 51.8404 17.828 51.2524 17.828C50.7844 17.828 50.3764 17.9 50.0284 18.044C49.6924 18.188 49.4104 18.392 49.1824 18.656C48.9544 18.92 48.7804 19.232 48.6604 19.592C48.5524 19.94 48.4984 20.324 48.4984 20.744V26H46.9684V16.694ZM59.0944 16.694H60.9484V18.044H59.0944V23.822C59.0944 24.002 59.1064 24.146 59.1304 24.254C59.1664 24.362 59.2264 24.446 59.3104 24.506C59.3944 24.566 59.5084 24.608 59.6524 24.632C59.8084 24.644 60.0064 24.65 60.2464 24.65H60.9484V26H59.7784C59.3824 26 59.0404 25.976 58.7524 25.928C58.4764 25.868 58.2484 25.766 58.0684 25.622C57.9004 25.478 57.7744 25.274 57.6904 25.01C57.6064 24.746 57.5644 24.398 57.5644 23.966V18.044H55.9804V16.694H57.5644V13.904H59.0944V16.694ZM70.8921 25.964C70.6281 26.12 70.2621 26.198 69.7941 26.198C69.3981 26.198 69.0801 26.09 68.8401 25.874C68.6121 25.646 68.4981 25.28 68.4981 24.776C68.0781 25.28 67.5861 25.646 67.0221 25.874C66.4701 26.09 65.8701 26.198 65.2221 26.198C64.8021 26.198 64.4001 26.15 64.0161 26.054C63.6441 25.958 63.3201 25.808 63.0441 25.604C62.7681 25.4 62.5461 25.136 62.3781 24.812C62.2221 24.476 62.1441 24.074 62.1441 23.606C62.1441 23.078 62.2341 22.646 62.4141 22.31C62.5941 21.974 62.8281 21.704 63.1161 21.5C63.4161 21.284 63.7521 21.122 64.1241 21.014C64.5081 20.906 64.8981 20.816 65.2941 20.744C65.7141 20.66 66.1101 20.6 66.4821 20.564C66.8661 20.516 67.2021 20.456 67.4901 20.384C67.7781 20.3 68.0061 20.186 68.1741 20.042C68.3421 19.886 68.4261 19.664 68.4261 19.376C68.4261 19.04 68.3601 18.77 68.2281 18.566C68.1081 18.362 67.9461 18.206 67.7421 18.098C67.5501 17.99 67.3281 17.918 67.0761 17.882C66.8361 17.846 66.5961 17.828 66.3561 17.828C65.7081 17.828 65.1681 17.954 64.7361 18.206C64.3041 18.446 64.0701 18.908 64.0341 19.592H62.5041C62.5281 19.016 62.6481 18.53 62.8641 18.134C63.0801 17.738 63.3681 17.42 63.7281 17.18C64.0881 16.928 64.4961 16.748 64.9521 16.64C65.4201 16.532 65.9181 16.478 66.4461 16.478C66.8661 16.478 67.2801 16.508 67.6881 16.568C68.1081 16.628 68.4861 16.754 68.8221 16.946C69.1581 17.126 69.4281 17.384 69.6321 17.72C69.8361 18.056 69.9381 18.494 69.9381 19.034V23.822C69.9381 24.182 69.9561 24.446 69.9921 24.614C70.0401 24.782 70.1841 24.866 70.4241 24.866C70.5561 24.866 70.7121 24.836 70.8921 24.776V25.964ZM68.4081 21.194C68.2161 21.338 67.9641 21.446 67.6521 21.518C67.3401 21.578 67.0101 21.632 66.6621 21.68C66.3261 21.716 65.9841 21.764 65.6361 21.824C65.2881 21.872 64.9761 21.956 64.7001 22.076C64.4241 22.196 64.1961 22.37 64.0161 22.598C63.8481 22.814 63.7641 23.114 63.7641 23.498C63.7641 23.75 63.8121 23.966 63.9081 24.146C64.0161 24.314 64.1481 24.452 64.3041 24.56C64.4721 24.668 64.6641 24.746 64.8801 24.794C65.0961 24.842 65.3241 24.866 65.5641 24.866C66.0681 24.866 66.5001 24.8 66.8601 24.668C67.2201 24.524 67.5141 24.35 67.7421 24.146C67.9701 23.93 68.1381 23.702 68.2461 23.462C68.3541 23.21 68.4081 22.976 68.4081 22.76V21.194ZM78.6341 19.682C78.5141 19.094 78.2621 18.638 77.8781 18.314C77.4941 17.99 76.9781 17.828 76.3301 17.828C75.7781 17.828 75.3161 17.93 74.9441 18.134C74.5721 18.338 74.2721 18.608 74.0441 18.944C73.8281 19.28 73.6721 19.67 73.5761 20.114C73.4801 20.546 73.4321 20.996 73.4321 21.464C73.4321 21.896 73.4801 22.316 73.5761 22.724C73.6841 23.132 73.8461 23.498 74.0621 23.822C74.2781 24.134 74.5601 24.386 74.9081 24.578C75.2561 24.77 75.6701 24.866 76.1501 24.866C76.9061 24.866 77.4941 24.668 77.9141 24.272C78.3461 23.876 78.6101 23.318 78.7061 22.598H80.2721C80.1041 23.75 79.6721 24.638 78.9761 25.262C78.2921 25.886 77.3561 26.198 76.1681 26.198C75.4601 26.198 74.8301 26.084 74.2781 25.856C73.7381 25.628 73.2821 25.304 72.9101 24.884C72.5501 24.464 72.2741 23.966 72.0821 23.39C71.9021 22.802 71.8121 22.16 71.8121 21.464C71.8121 20.768 71.9021 20.12 72.0821 19.52C72.2621 18.908 72.5321 18.38 72.8921 17.936C73.2641 17.48 73.7261 17.126 74.2781 16.874C74.8301 16.61 75.4721 16.478 76.2041 16.478C76.7321 16.478 77.2241 16.544 77.6801 16.676C78.1481 16.796 78.5561 16.988 78.9041 17.252C79.2641 17.516 79.5581 17.852 79.7861 18.26C80.0141 18.656 80.1581 19.13 80.2181 19.682H78.6341ZM84.108 16.694H85.962V18.044H84.108V23.822C84.108 24.002 84.12 24.146 84.144 24.254C84.18 24.362 84.24 24.446 84.324 24.506C84.408 24.566 84.522 24.608 84.666 24.632C84.822 24.644 85.02 24.65 85.26 24.65H85.962V26H84.792C84.396 26 84.054 25.976 83.766 25.928C83.49 25.868 83.262 25.766 83.082 25.622C82.914 25.478 82.788 25.274 82.704 25.01C82.62 24.746 82.578 24.398 82.578 23.966V18.044H80.994V16.694H82.578V13.904H84.108V16.694Z" fill="#303030"/>
</svg>
